<mxfile host="app.diagrams.net" modified="2022-02-01T14:00:24.729Z" agent="5.0 (X11)" etag="wDjscG6VOEwAnH20uS3y" version="16.5.2" type="github">
  <diagram id="C5RBs43oDa-KdzZeNtuy" name="Page-1">
    <mxGraphModel dx="1102" dy="613" grid="1" gridSize="10" guides="1" tooltips="1" connect="1" arrows="1" fold="1" page="1" pageScale="1" pageWidth="827" pageHeight="1169" math="0" shadow="0">
      <root>
        <mxCell id="WIyWlLk6GJQsqaUBKTNV-0" />
        <mxCell id="WIyWlLk6GJQsqaUBKTNV-1" parent="WIyWlLk6GJQsqaUBKTNV-0" />
        <mxCell id="MKhnatG8bHOfvj1POLxw-29" style="edgeStyle=orthogonalEdgeStyle;rounded=0;orthogonalLoop=1;jettySize=auto;html=1;exitX=0.5;exitY=1;exitDx=0;exitDy=0;entryX=0.5;entryY=1;entryDx=0;entryDy=0;" edge="1" parent="WIyWlLk6GJQsqaUBKTNV-1" source="MKhnatG8bHOfvj1POLxw-16" target="MKhnatG8bHOfvj1POLxw-0">
          <mxGeometry relative="1" as="geometry">
            <Array as="points">
              <mxPoint x="640" y="520" />
              <mxPoint x="640" y="570" />
              <mxPoint x="430" y="570" />
              <mxPoint x="430" y="340" />
            </Array>
          </mxGeometry>
        </mxCell>
        <mxCell id="MKhnatG8bHOfvj1POLxw-3" style="edgeStyle=orthogonalEdgeStyle;rounded=0;orthogonalLoop=1;jettySize=auto;html=1;entryX=0;entryY=0.5;entryDx=0;entryDy=0;" edge="1" parent="WIyWlLk6GJQsqaUBKTNV-1" source="MKhnatG8bHOfvj1POLxw-1" target="MKhnatG8bHOfvj1POLxw-0">
          <mxGeometry relative="1" as="geometry" />
        </mxCell>
        <mxCell id="MKhnatG8bHOfvj1POLxw-5" style="edgeStyle=orthogonalEdgeStyle;rounded=0;orthogonalLoop=1;jettySize=auto;html=1;entryX=0;entryY=0.75;entryDx=0;entryDy=0;exitX=0.5;exitY=1;exitDx=0;exitDy=0;" edge="1" parent="WIyWlLk6GJQsqaUBKTNV-1" source="MKhnatG8bHOfvj1POLxw-1" target="MKhnatG8bHOfvj1POLxw-0">
          <mxGeometry relative="1" as="geometry">
            <Array as="points">
              <mxPoint x="130" y="290" />
            </Array>
          </mxGeometry>
        </mxCell>
        <mxCell id="MKhnatG8bHOfvj1POLxw-7" style="edgeStyle=orthogonalEdgeStyle;rounded=0;orthogonalLoop=1;jettySize=auto;html=1;exitX=0.25;exitY=1;exitDx=0;exitDy=0;" edge="1" parent="WIyWlLk6GJQsqaUBKTNV-1" source="MKhnatG8bHOfvj1POLxw-1">
          <mxGeometry relative="1" as="geometry">
            <mxPoint x="340" y="340" as="targetPoint" />
            <Array as="points">
              <mxPoint x="100" y="400" />
              <mxPoint x="340" y="400" />
            </Array>
          </mxGeometry>
        </mxCell>
        <mxCell id="MKhnatG8bHOfvj1POLxw-13" style="edgeStyle=orthogonalEdgeStyle;rounded=0;orthogonalLoop=1;jettySize=auto;html=1;exitX=0.75;exitY=0;exitDx=0;exitDy=0;entryX=0.25;entryY=0;entryDx=0;entryDy=0;" edge="1" parent="WIyWlLk6GJQsqaUBKTNV-1" source="MKhnatG8bHOfvj1POLxw-1" target="MKhnatG8bHOfvj1POLxw-0">
          <mxGeometry relative="1" as="geometry" />
        </mxCell>
        <mxCell id="MKhnatG8bHOfvj1POLxw-15" style="edgeStyle=orthogonalEdgeStyle;rounded=0;orthogonalLoop=1;jettySize=auto;html=1;exitX=0;exitY=0.5;exitDx=0;exitDy=0;entryX=0.25;entryY=1;entryDx=0;entryDy=0;" edge="1" parent="WIyWlLk6GJQsqaUBKTNV-1" source="MKhnatG8bHOfvj1POLxw-1" target="MKhnatG8bHOfvj1POLxw-0">
          <mxGeometry relative="1" as="geometry">
            <Array as="points">
              <mxPoint x="50" y="70" />
              <mxPoint x="50" y="470" />
              <mxPoint x="364" y="470" />
            </Array>
          </mxGeometry>
        </mxCell>
        <mxCell id="MKhnatG8bHOfvj1POLxw-1" value="customer" style="rounded=1;whiteSpace=wrap;html=1;" vertex="1" parent="WIyWlLk6GJQsqaUBKTNV-1">
          <mxGeometry x="70" y="40" width="120" height="60" as="geometry" />
        </mxCell>
        <mxCell id="MKhnatG8bHOfvj1POLxw-4" value="&lt;div&gt;authenticate&lt;/div&gt;&lt;div&gt;&lt;br&gt;&lt;/div&gt;" style="text;html=1;strokeColor=none;fillColor=none;align=center;verticalAlign=middle;whiteSpace=wrap;rounded=0;" vertex="1" parent="WIyWlLk6GJQsqaUBKTNV-1">
          <mxGeometry x="190" y="150" width="60" height="30" as="geometry" />
        </mxCell>
        <mxCell id="MKhnatG8bHOfvj1POLxw-6" value="&lt;div&gt;looks for bus routes&lt;/div&gt;&lt;div&gt;&lt;br&gt;&lt;/div&gt;" style="text;html=1;align=center;verticalAlign=middle;resizable=0;points=[];autosize=1;strokeColor=none;fillColor=none;rotation=90;" vertex="1" parent="WIyWlLk6GJQsqaUBKTNV-1">
          <mxGeometry x="50" y="170" width="120" height="30" as="geometry" />
        </mxCell>
        <mxCell id="MKhnatG8bHOfvj1POLxw-8" value="&lt;div&gt;selects bus seat from selected bus&lt;/div&gt;&lt;div&gt;&lt;br&gt;&lt;/div&gt;&lt;div&gt;&lt;br&gt;&lt;/div&gt;" style="text;html=1;strokeColor=none;fillColor=none;align=center;verticalAlign=middle;whiteSpace=wrap;rounded=0;" vertex="1" parent="WIyWlLk6GJQsqaUBKTNV-1">
          <mxGeometry x="170" y="430" width="110" height="30" as="geometry" />
        </mxCell>
        <mxCell id="MKhnatG8bHOfvj1POLxw-14" value="&lt;div&gt;pays for selected bus&lt;/div&gt;&lt;div&gt;&lt;br&gt;&lt;/div&gt;" style="text;html=1;strokeColor=none;fillColor=none;align=center;verticalAlign=middle;whiteSpace=wrap;rounded=0;" vertex="1" parent="WIyWlLk6GJQsqaUBKTNV-1">
          <mxGeometry x="220" y="30" width="100" height="30" as="geometry" />
        </mxCell>
        <mxCell id="MKhnatG8bHOfvj1POLxw-17" style="edgeStyle=orthogonalEdgeStyle;rounded=0;orthogonalLoop=1;jettySize=auto;html=1;exitX=0;exitY=0.5;exitDx=0;exitDy=0;entryX=0.75;entryY=1;entryDx=0;entryDy=0;" edge="1" parent="WIyWlLk6GJQsqaUBKTNV-1" source="MKhnatG8bHOfvj1POLxw-16" target="MKhnatG8bHOfvj1POLxw-0">
          <mxGeometry relative="1" as="geometry" />
        </mxCell>
        <mxCell id="MKhnatG8bHOfvj1POLxw-19" style="edgeStyle=orthogonalEdgeStyle;rounded=0;orthogonalLoop=1;jettySize=auto;html=1;exitX=0.5;exitY=0;exitDx=0;exitDy=0;entryX=1;entryY=0.75;entryDx=0;entryDy=0;" edge="1" parent="WIyWlLk6GJQsqaUBKTNV-1" source="MKhnatG8bHOfvj1POLxw-16" target="MKhnatG8bHOfvj1POLxw-0">
          <mxGeometry relative="1" as="geometry" />
        </mxCell>
        <mxCell id="MKhnatG8bHOfvj1POLxw-24" style="edgeStyle=orthogonalEdgeStyle;rounded=0;orthogonalLoop=1;jettySize=auto;html=1;startArrow=none;entryX=1;entryY=0.25;entryDx=0;entryDy=0;" edge="1" parent="WIyWlLk6GJQsqaUBKTNV-1" source="MKhnatG8bHOfvj1POLxw-0" target="MKhnatG8bHOfvj1POLxw-16">
          <mxGeometry relative="1" as="geometry">
            <mxPoint x="520" y="210" as="sourcePoint" />
            <mxPoint x="740" y="510" as="targetPoint" />
            <Array as="points">
              <mxPoint x="810" y="210" />
              <mxPoint x="810" y="540" />
              <mxPoint x="770" y="540" />
              <mxPoint x="770" y="480" />
              <mxPoint x="740" y="480" />
            </Array>
          </mxGeometry>
        </mxCell>
        <mxCell id="MKhnatG8bHOfvj1POLxw-22" style="edgeStyle=orthogonalEdgeStyle;rounded=0;orthogonalLoop=1;jettySize=auto;html=1;exitX=1;exitY=0.5;exitDx=0;exitDy=0;entryX=1;entryY=0.5;entryDx=0;entryDy=0;" edge="1" parent="WIyWlLk6GJQsqaUBKTNV-1" source="MKhnatG8bHOfvj1POLxw-16" target="MKhnatG8bHOfvj1POLxw-0">
          <mxGeometry relative="1" as="geometry">
            <Array as="points">
              <mxPoint x="710" y="490" />
              <mxPoint x="710" y="440" />
              <mxPoint x="720" y="440" />
              <mxPoint x="720" y="240" />
            </Array>
          </mxGeometry>
        </mxCell>
        <mxCell id="MKhnatG8bHOfvj1POLxw-38" style="edgeStyle=orthogonalEdgeStyle;rounded=0;orthogonalLoop=1;jettySize=auto;html=1;exitX=0.5;exitY=1;exitDx=0;exitDy=0;" edge="1" parent="WIyWlLk6GJQsqaUBKTNV-1" source="MKhnatG8bHOfvj1POLxw-16">
          <mxGeometry relative="1" as="geometry">
            <mxPoint x="390" y="342" as="targetPoint" />
            <Array as="points">
              <mxPoint x="680" y="680" />
              <mxPoint x="390" y="680" />
            </Array>
          </mxGeometry>
        </mxCell>
        <mxCell id="MKhnatG8bHOfvj1POLxw-16" value="bus owner" style="rounded=1;whiteSpace=wrap;html=1;" vertex="1" parent="WIyWlLk6GJQsqaUBKTNV-1">
          <mxGeometry x="620" y="460" width="120" height="60" as="geometry" />
        </mxCell>
        <mxCell id="MKhnatG8bHOfvj1POLxw-18" value="&lt;div&gt;authenticate&lt;/div&gt;&lt;div&gt;&lt;br&gt;&lt;/div&gt;" style="text;html=1;strokeColor=none;fillColor=none;align=center;verticalAlign=middle;whiteSpace=wrap;rounded=0;" vertex="1" parent="WIyWlLk6GJQsqaUBKTNV-1">
          <mxGeometry x="520" y="500" width="60" height="30" as="geometry" />
        </mxCell>
        <mxCell id="MKhnatG8bHOfvj1POLxw-20" value="adds a bus" style="text;html=1;strokeColor=none;fillColor=none;align=center;verticalAlign=middle;whiteSpace=wrap;rounded=0;rotation=90;" vertex="1" parent="WIyWlLk6GJQsqaUBKTNV-1">
          <mxGeometry x="640" y="380" width="110" height="30" as="geometry" />
        </mxCell>
        <mxCell id="MKhnatG8bHOfvj1POLxw-23" value="monitors bus " style="text;html=1;strokeColor=none;fillColor=none;align=center;verticalAlign=middle;whiteSpace=wrap;rounded=0;rotation=90;" vertex="1" parent="WIyWlLk6GJQsqaUBKTNV-1">
          <mxGeometry x="680" y="360" width="110" height="30" as="geometry" />
        </mxCell>
        <mxCell id="MKhnatG8bHOfvj1POLxw-25" value="Text" style="text;html=1;strokeColor=none;fillColor=none;align=center;verticalAlign=middle;whiteSpace=wrap;rounded=0;" vertex="1" parent="WIyWlLk6GJQsqaUBKTNV-1">
          <mxGeometry x="380" y="290" width="60" height="30" as="geometry" />
        </mxCell>
        <mxCell id="MKhnatG8bHOfvj1POLxw-26" value="&lt;div&gt;view monthly statistics &lt;br&gt;&lt;/div&gt;&lt;div&gt;&lt;br&gt;&lt;/div&gt;" style="text;html=1;align=center;verticalAlign=middle;resizable=0;points=[];autosize=1;strokeColor=none;fillColor=none;rotation=90;" vertex="1" parent="WIyWlLk6GJQsqaUBKTNV-1">
          <mxGeometry x="750" y="340" width="130" height="30" as="geometry" />
        </mxCell>
        <mxCell id="MKhnatG8bHOfvj1POLxw-30" value="add trips for buses " style="text;html=1;align=center;verticalAlign=middle;resizable=0;points=[];autosize=1;strokeColor=none;fillColor=none;" vertex="1" parent="WIyWlLk6GJQsqaUBKTNV-1">
          <mxGeometry x="475" y="540" width="110" height="20" as="geometry" />
        </mxCell>
        <mxCell id="MKhnatG8bHOfvj1POLxw-35" style="edgeStyle=orthogonalEdgeStyle;rounded=0;orthogonalLoop=1;jettySize=auto;html=1;exitX=0.75;exitY=0;exitDx=0;exitDy=0;entryX=0.5;entryY=1;entryDx=0;entryDy=0;" edge="1" parent="WIyWlLk6GJQsqaUBKTNV-1" source="MKhnatG8bHOfvj1POLxw-0" target="MKhnatG8bHOfvj1POLxw-16">
          <mxGeometry relative="1" as="geometry">
            <mxPoint x="870" y="758" as="targetPoint" />
            <Array as="points">
              <mxPoint x="470" y="120" />
              <mxPoint x="900" y="120" />
              <mxPoint x="900" y="600" />
              <mxPoint x="710" y="600" />
              <mxPoint x="710" y="520" />
            </Array>
          </mxGeometry>
        </mxCell>
        <mxCell id="MKhnatG8bHOfvj1POLxw-0" value="bus app" style="swimlane;" vertex="1" parent="WIyWlLk6GJQsqaUBKTNV-1">
          <mxGeometry x="320" y="140" width="200" height="200" as="geometry" />
        </mxCell>
        <mxCell id="MKhnatG8bHOfvj1POLxw-2" value="level 0" style="text;html=1;align=center;verticalAlign=middle;resizable=0;points=[];autosize=1;strokeColor=none;fillColor=none;" vertex="1" parent="MKhnatG8bHOfvj1POLxw-0">
          <mxGeometry x="76" y="90" width="50" height="20" as="geometry" />
        </mxCell>
        <mxCell id="MKhnatG8bHOfvj1POLxw-36" value="Withdraw funds " style="text;html=1;align=center;verticalAlign=middle;resizable=0;points=[];autosize=1;strokeColor=none;fillColor=none;" vertex="1" parent="WIyWlLk6GJQsqaUBKTNV-1">
          <mxGeometry x="610" y="120" width="100" height="20" as="geometry" />
        </mxCell>
        <mxCell id="MKhnatG8bHOfvj1POLxw-40" value="&lt;div&gt;request query filters &lt;br&gt;&lt;/div&gt;&lt;div&gt;&lt;br&gt;&lt;/div&gt;" style="text;html=1;align=center;verticalAlign=middle;resizable=0;points=[];autosize=1;strokeColor=none;fillColor=none;" vertex="1" parent="WIyWlLk6GJQsqaUBKTNV-1">
          <mxGeometry x="460" y="660" width="120" height="30" as="geometry" />
        </mxCell>
      </root>
    </mxGraphModel>
  </diagram>
</mxfile>
